<?xml version="1.0" encoding="utf-8"?>
<!-- Generated by IcoMoon.io -->
<!DOCTYPE svg PUBLIC "-//W3C//DTD SVG 1.1//EN" "http://www.w3.org/Graphics/SVG/1.1/DTD/svg11.dtd">
<svg version="1.1" xmlns="http://www.w3.org/2000/svg" xmlns:xlink="http://www.w3.org/1999/xlink" width="955" height="1024" viewBox="0 0 955 1024">
	<path d="M955.392 852.992v102.4h-955.392v-102.4q0-10.24 3.072-19.968t10.24-18.944 13.312-16.384 18.944-14.848 19.456-12.288 22.528-11.776 20.992-9.216 21.504-9.216 17.408-7.168q81.92-33.792 90.112-37.888 76.8-35.84 110.592-73.728 16.384-19.456 16.384-36.864 0-28.672-11.264-69.632-3.072-15.36-9.216-30.72t-16.384-35.84-14.336-29.696q-8.192-18.432-13.312-37.376t-10.752-50.176-7.68-38.4q-1.024-6.144-3.584-16.896t-4.096-19.968-1.536-17.408q0-101.376 53.248-169.984t151.552-68.608 151.552 68.608 53.248 169.984q0 5.12-8.192 54.272-18.432 96.256-30.72 125.952-4.096 9.216-13.824 29.696t-15.872 35.84-10.24 30.72q-11.264 49.152-11.264 69.632 0 17.408 16.384 36.864 33.792 37.888 110.592 73.728 17.408 8.192 90.112 37.888 25.6 10.24 35.328 14.336t35.84 17.408 38.912 24.064 24.576 28.16 11.776 35.84z" />
</svg>
