<?xml version="1.0" encoding="UTF-8" standalone="no"?>
<svg width="488px" height="500px" viewBox="0 0 488 500" version="1.1" xmlns="http://www.w3.org/2000/svg" xmlns:xlink="http://www.w3.org/1999/xlink" xmlns:sketch="http://www.bohemiancoding.com/sketch/ns">
    <title>plusone</title>
    <description>Created with Sketch (http://www.bohemiancoding.com/sketch)</description>
    <defs></defs>
    <g id="Page-1" stroke="none" stroke-width="1" fill="none" fill-rule="evenodd" sketch:type="MSPage">
        <g id="plusone" sketch:type="MSLayerGroup" fill="#000000">
            <g id="Page-1" sketch:type="MSShapeGroup">
                <g id="plusone">
                    <g id="Page-1">
                        <g id="Google_plus">
                            <g id="Group">
                                <g id="Shape">
                                    <path d="M257.098863,285.407447 L233.622882,267.206478 C226.473406,261.286602 216.695185,253.471896 216.695185,239.16651 C216.695185,224.802278 226.473406,215.669428 234.960831,207.213304 C262.3092,185.72286 289.633993,162.849544 289.633993,114.649045 C289.633993,65.0833255 258.395554,39.0088033 243.424679,26.6394407 L283.792994,26.6394407 L326.165284,0.0588456781 L197.798876,0.0588456781 C162.576061,0.0588456781 111.816546,8.3796253 74.6545905,39.0088033 C46.646088,63.1355334 32.9836913,96.400998 32.9836913,126.347566 C32.9836913,177.184352 72.0788927,228.715516 141.115844,228.715516 C147.634657,228.715516 154.766453,228.074098 161.9454,227.409143 C158.721356,235.241503 155.461949,241.761604 155.461949,252.830478 C155.461949,273.020431 165.853151,285.401563 175.012497,297.129507 C145.677835,299.14203 90.9162611,302.384427 50.5479459,327.15846 C12.1010894,349.9847 0.40140979,383.208973 0.40140979,406.658978 C0.40140979,454.924206 45.9682728,499.882309 140.45571,499.882309 C252.501509,499.882309 311.819179,437.982534 311.819179,376.706525 C311.825073,331.683692 285.773393,309.522409 257.098863,285.407447 C257.098863,285.407447 285.773393,309.522409 257.098863,285.407447 L257.098863,285.407447 L257.098863,285.407447 Z M171.758984,210.449817 C115.706615,210.449817 90.3150684,138.104933 90.3150684,94.4532059 C90.3150684,77.4585727 93.5391112,59.91079 104.62581,46.2056304 C115.075953,33.1536579 133.276764,24.6857641 150.269296,24.6857641 C204.305902,24.6857641 232.332087,97.6779494 232.332087,144.625035 C232.332087,156.370634 231.035396,177.184352 216.052734,192.231193 C205.573121,202.670417 188.038337,210.449817 171.758984,210.449817 L171.758984,210.449817 L171.758984,210.449817 Z M172.401435,472.566143 C102.698458,472.566143 57.7504691,439.27714 57.7504691,392.989126 C57.7504691,346.712881 99.4272625,331.059928 113.767474,325.875623 C141.115844,316.689813 176.309187,315.406977 182.179656,315.406977 C188.692576,315.406977 191.951982,315.406977 197.138743,316.060164 C246.689981,351.267536 268.19735,368.815319 268.19735,402.145513 C268.19735,442.507767 234.960831,472.566143 172.401435,472.566143 L172.401435,472.566143 L172.401435,472.566143 Z"></path>
                                    <path d="M421.62524,209.455324 L421.62524,144.283731 L389.384813,144.283731 L389.384813,209.455324 L324.214356,209.455324 L324.214356,242.002871 L389.384813,242.002871 L389.384813,307.574616 L421.62524,307.574616 L421.62524,242.002871 L487.125763,242.002871 L487.125763,209.455324 L421.62524,209.455324 L421.62524,209.455324 Z"></path>
                                </g>
                            </g>
                        </g>
                    </g>
                </g>
            </g>
        </g>
    </g>
</svg>