<?xml version="1.0" encoding="UTF-8" standalone="no"?>
<svg
   xmlns:dc="http://purl.org/dc/elements/1.1/"
   xmlns:cc="http://creativecommons.org/ns#"
   xmlns:rdf="http://www.w3.org/1999/02/22-rdf-syntax-ns#"
   xmlns:svg="http://www.w3.org/2000/svg"
   xmlns="http://www.w3.org/2000/svg"
   xmlns:sodipodi="http://sodipodi.sourceforge.net/DTD/sodipodi-0.dtd"
   xmlns:inkscape="http://www.inkscape.org/namespaces/inkscape"
   id="svg3050"
   version="1.1"
   inkscape:version="0.48.2 r9819"
   width="460"
   height="1000"
   sodipodi:docname="info.svg">
  <metadata
     id="metadata3058">
    <rdf:RDF>
      <cc:Work
         rdf:about="">
        <dc:format>image/svg+xml</dc:format>
        <dc:type
           rdf:resource="http://purl.org/dc/dcmitype/StillImage" />
      </cc:Work>
    </rdf:RDF>
  </metadata>
  <defs
     id="defs3056" />
  <sodipodi:namedview
     pagecolor="#ffffff"
     bordercolor="#666666"
     borderopacity="1"
     objecttolerance="10"
     gridtolerance="10"
     guidetolerance="10"
     inkscape:pageopacity="0"
     inkscape:pageshadow="2"
     inkscape:window-width="1680"
     inkscape:window-height="1002"
     id="namedview3054"
     showgrid="false"
     inkscape:zoom="0.37249533"
     inkscape:cx="372.04724"
     inkscape:cy="473.81891"
     inkscape:window-x="0"
     inkscape:window-y="0"
     inkscape:window-maximized="1"
     inkscape:current-layer="svg3050"
     showguides="true"
     inkscape:guide-bbox="true"
     fit-margin-top="0"
     fit-margin-left="0"
     fit-margin-right="0"
     fit-margin-bottom="0" />
  <path
     d="m 352,0 q 48,0 74,27 26,27 26,69 0,50 -39,88 -39,38 -95,38 -48,0 -74,-26 -26,-26 -24,-72 0,-46 35,-85 Q 290,0 352,0 z M 146,1000 Q 46,1000 92,822 l 60,-254 q 14,-56 0,-56 -12,0 -54,18 -42,18 -72,38 L 0,524 q 90,-78 189,-126 99,-48 151,-48 78,0 36,162 l -70,266 q -16,64 6,64 44,0 118,-60 l 30,40 q -84,86 -175,132 -91,46 -139,46 z"
     id="path3052"
     inkscape:connector-curvature="0" />
</svg>
