<svg width="10" height="20" viewBox="0 0 10 20" xmlns="http://www.w3.org/2000/svg"><path d="M7.652 0c.696 0 1.232.18 1.609.54.377.36.565.82.565 1.38 0 .667-.283 1.253-.848 1.76-.565.507-1.253.76-2.065.76-.696 0-1.232-.173-1.609-.52-.376-.347-.55-.827-.521-1.44 0-.613.253-1.18.76-1.7C6.051.26 6.753 0 7.653 0zM3.174 20c-1.45 0-1.84-1.187-1.174-3.56l1.304-5.08c.203-.747.203-1.12 0-1.12-.174 0-.565.12-1.174.36-.608.24-1.13.493-1.565.76L0 10.48a18.998 18.998 0 0 1 4.109-2.52C5.543 7.32 6.638 7 7.39 7c1.13 0 1.392 1.08.783 3.24l-1.522 5.32c-.232.853-.188 1.28.13 1.28.638 0 1.493-.4 2.566-1.2l.652.8c-1.217 1.147-2.486 2.027-3.804 2.64-1.32.613-2.326.92-3.022.92z"/></svg>
