<?xml version="1.0" encoding="UTF-8" standalone="no"?>
<svg width="230px" height="500px" viewBox="0 0 230 500" version="1.1" xmlns="http://www.w3.org/2000/svg" xmlns:xlink="http://www.w3.org/1999/xlink" xmlns:sketch="http://www.bohemiancoding.com/sketch/ns">
    <title>Untitled 6</title>
    <description>Created with Sketch (http://www.bohemiancoding.com/sketch)</description>
    <defs></defs>
    <g id="Page-1" stroke="none" stroke-width="1" fill="none" fill-rule="evenodd" sketch:type="MSPage">
        <g id="info" sketch:type="MSLayerGroup" fill="#000000">
            <path d="M176,0 C192,0 204.333333,4.5 213,13.5 C221.666667,22.5 226,34 226,48 C226,64.6666667 219.5,79.3333333 206.5,92 C193.5,104.666667 177.666667,111 159,111 C143,111 130.666667,106.666667 122,98 C113.333333,89.3333333 109.333333,77.3333333 110,62 C110,46.6666667 115.833333,32.5 127.5,19.5 C139.166667,6.5 155.333333,0 176,0 L176,0 Z M73,500 C39.6666667,500 30.6666667,470.333333 46,411 L76,284 C80.6666667,265.333333 80.6666667,256 76,256 C72,256 63,259 49,265 C35,271 23,277.333333 13,284 L0,262 C30,236 61.5,215 94.5,199 C127.5,183 152.666667,175 170,175 C196,175 202,202 188,256 L153,389 C147.666667,410.333333 148.666667,421 156,421 C170.666667,421 190.333333,411 215,391 L230,411 C202,439.666667 172.833333,461.666667 142.5,477 C112.166667,492.333333 89,500 73,500 L73,500 Z" id="path3052" sketch:type="MSShapeGroup"></path>
        </g>
    </g>
</svg>