<?xml version="1.0" encoding="UTF-8" standalone="no"?>
<svg width="408px" height="500px" viewBox="0 0 408 500" version="1.1" xmlns="http://www.w3.org/2000/svg" xmlns:xlink="http://www.w3.org/1999/xlink" xmlns:sketch="http://www.bohemiancoding.com/sketch/ns">
    <title>lj-comm</title>
    <description>Created with Sketch (http://www.bohemiancoding.com/sketch)</description>
    <defs></defs>
    <g id="Page-1" stroke="none" stroke-width="1" fill="none" fill-rule="evenodd" sketch:type="MSPage">
        <g id="lj-comm" sketch:type="MSLayerGroup" transform="translate(1.000000, 0.000000)" fill="#000000">
            <path d="M239.264061,395.696491 C242.698364,384.394737 251.714727,372.77193 256.344182,358.705263 C262.652121,339.536842 261.363818,332.408772 261.796182,311.894737 C306.352485,321.184211 313.307212,315.949123 348.808485,300.364912 C353.376424,306.414035 367.03103,405.740351 368.189273,421.161404 C363.225879,424.289474 358.352121,425.564912 353.253394,429.303509 C346.681818,434.122807 347.010485,436.721053 341.335273,441.364912 L239.264061,395.696491 L239.264061,395.696491 Z M128.338182,147.208772 C118.690848,156.210526 80.5567273,191.077193 93.0495758,208.219298 C108.431879,229.326316 122.768424,247.440351 137.902909,268.010526 L221.748061,380.108772 C224.168242,383.191228 225.011879,384.07193 227.361758,386.249123 C227.71503,385.919298 228.186061,385.468421 228.404,385.240351 L230.388303,383.192982 C230.651939,382.887719 231.019273,382.459649 231.282909,382.136842 C233.358606,379.575439 231.910364,381.442105 233.632788,378.821053 C235.437818,376.07193 236.328909,374.445614 237.740242,371.684211 C240.589273,366.105263 242.756364,360.463158 244.528,354.252632 C254.778182,318.324561 245.354061,301.961404 229.820606,280.714035 L169.143818,199.559649 C161.890303,189.821053 134.350848,151.361404 128.338182,147.208772 L128.338182,147.208772 L128.338182,147.208772 Z M138.482909,136.95614 C140.570909,144.578947 172.376,184.785965 178.873758,193.547368 C192.154,211.450877 205.033515,228.72807 218.744364,246.975439 C228.389939,259.815789 248.890303,293.017544 262.868303,297.961404 C290.193333,307.624561 319.024606,302.180702 340.841394,290.140351 C335.459697,279.066667 244.589515,160.263158 230.873394,141.612281 L208.638303,111.536842 C196.725455,99.5298246 147.673273,133.596491 138.482909,136.95614 L138.482909,136.95614 L138.482909,136.95614 Z M174.117758,93.1491228 C163.746303,97.1596491 139.769455,109.373684 133.398242,110.480702 C129.746,115.859649 120.873758,121.229825 115.713515,125.064912 C95.4240606,140.142105 87.683697,155.5 75.8165455,174.733333 L72.2855758,179.366667 C64.0284848,170.742105 55.7977576,159.74386 48.9924242,148.87193 C53.9013333,121.761404 90.9264242,88.1122807 109.412606,77.3807018 C120.313091,70.8508772 137.554909,61.0666667 152.170909,58.5842105 L165.704242,55.4719298 C170.904909,60.3684211 190.129273,84.8122807 190.783091,89.8140351 L174.117758,93.1491228 L174.117758,93.1491228 Z M31.8279394,124.533333 C23.7905455,76.8754386 98.6667879,15.3333333 148.933455,35.1526316 C143.003394,39.2175439 87.6063636,48.8894737 51.9978788,95.0526316 C44.5387273,104.722807 34.8896364,122.935088 31.8279394,124.533333 L31.8279394,124.533333 L31.8279394,124.533333 Z M203.548364,405.752632 C214.24497,420.414035 218.094061,419.007018 240.540061,428.570175 C290.611636,449.9 358.21503,477.526316 406.105455,499.82807 C402.386424,445.438596 388.82497,354.936842 380.815697,297.766667 C377.739939,275.807018 185.603515,22.6 168.43903,10.0087719 C109.192909,-33.4614035 -42.1818182,76.9210526 11.0410909,148.421053 C24.0594545,165.910526 34.5908485,180.073684 47.7691515,197.566667 C229.128121,438.291228 60.738303,210.040351 203.548364,405.752632 L203.548364,405.752632 Z" id="Shape" sketch:type="MSShapeGroup"></path>
        </g>
    </g>
</svg>