<?xml version="1.0" encoding="UTF-8" standalone="no"?>
<svg width="501px" height="501px" viewBox="0 0 501 501" version="1.1" xmlns="http://www.w3.org/2000/svg" xmlns:xlink="http://www.w3.org/1999/xlink" xmlns:sketch="http://www.bohemiancoding.com/sketch/ns">
    <title>lj-user</title>
    <description>Created with Sketch (http://www.bohemiancoding.com/sketch)</description>
    <defs></defs>
    <g id="Page-1" stroke="none" stroke-width="1" fill="none" fill-rule="evenodd" sketch:type="MSPage">
        <path d="M500.205236,500.205236 L0,500.205236 L0,446.59267 C0,443.018499 0.536125654,439.533682 1.60837696,436.13822 C2.68062827,432.742757 4.46771379,429.436649 6.96963351,426.219895 C9.47155323,423.003141 11.7947644,420.143805 13.939267,417.641885 C16.0837696,415.139965 19.3898778,412.548691 23.8575916,409.868063 C28.3253054,407.187435 31.7207679,405.042932 34.0439791,403.434555 C36.3671902,401.826178 40.2987784,399.77103 45.8387435,397.26911 C51.3787086,394.76719 55.0422339,393.158813 56.8293194,392.443979 C58.6164049,391.729145 62.3692845,390.120768 68.0879581,387.618848 C73.8066318,385.116928 76.8446771,383.865969 77.2020942,383.865969 C105.795462,372.071204 121.521815,365.458988 124.381152,364.029319 C151.187435,351.519721 170.487958,338.652705 182.282723,325.428272 C188.001396,318.637347 190.860733,312.203839 190.860733,306.127749 C190.860733,296.12007 188.894939,283.967888 184.963351,269.671204 C183.891099,264.309948 182.282723,258.948691 180.13822,253.587435 C177.993717,248.226178 175.13438,241.971379 171.560209,234.823037 C167.986038,227.674695 165.484119,222.492147 164.05445,219.275393 C161.195113,212.841885 158.871902,206.319023 157.084817,199.706806 C155.297731,193.09459 153.421291,184.337871 151.455497,173.436649 C149.489703,162.535428 148.149389,155.833857 147.434555,153.331937 C147.077138,151.187435 146.451658,148.238743 145.558115,144.485864 C144.664572,140.732984 143.949738,137.248168 143.413613,134.031414 C142.877487,130.81466 142.609424,127.776614 142.609424,124.917277 C142.609424,89.5329843 151.902269,59.8673647 170.487958,35.9204188 C189.073647,11.9734729 215.522513,0 249.834555,0 C284.146597,0 310.595462,11.9734729 329.181152,35.9204188 C347.766841,59.8673647 357.059686,89.5329843 357.059686,124.917277 C357.059686,126.704363 355.630017,136.175916 352.770681,153.331937 C346.337173,186.929145 340.975916,208.910297 336.686911,219.275393 C335.257243,222.492147 332.844677,227.674695 329.449215,234.823037 C326.053752,241.971379 323.28377,248.226178 321.139267,253.587435 C318.994764,258.948691 317.207679,264.309948 315.77801,269.671204 C311.846422,286.827225 309.880628,298.979407 309.880628,306.127749 C309.880628,312.203839 312.739965,318.637347 318.458639,325.428272 C330.253403,338.652705 349.553927,351.519721 376.360209,364.029319 C382.4363,366.888656 398.162653,373.500873 423.539267,383.865969 C432.474695,387.44014 438.64014,389.942059 442.035602,391.371728 C445.431065,392.801396 451.685864,395.839442 460.8,400.485864 C469.914136,405.132286 476.705061,409.331937 481.172775,413.084817 C485.640489,416.837696 489.929494,421.752182 494.039791,427.828272 C498.150087,433.904363 500.205236,440.159162 500.205236,446.59267 L500.205236,500.205236 Z" id="Shape" fill="#000000" sketch:type="MSShapeGroup"></path>
    </g>
</svg>