<?xml version="1.0" encoding="UTF-8" standalone="no"?>
<svg width="500px" height="390px" viewBox="0 0 500 390" version="1.1" xmlns="http://www.w3.org/2000/svg" xmlns:xlink="http://www.w3.org/1999/xlink" xmlns:sketch="http://www.bohemiancoding.com/sketch/ns">
    <title>share</title>
    <description>Created with Sketch (http://www.bohemiancoding.com/sketch)</description>
    <defs></defs>
    <g id="Page-1" stroke="none" stroke-width="1" fill="none" fill-rule="evenodd" sketch:type="MSPage">
        <g id="share" sketch:type="MSLayerGroup" fill="#000000">
            <path d="M375,340 L375,312 L425,271 L425,365 C425,371.666667 422.5,377.5 417.5,382.5 C412.5,387.5 406.666667,390 400,390 L25,390 C18.3333333,390 12.5,387.5 7.5,382.5 C2.5,377.5 0,371.666667 0,365 L0,90 C0,82.6666667 2.33333333,76.6666667 7,72 C11.6666667,67.3333333 17.6666667,65 25,65 L169,65 C158.333333,73 148.5,81.1666667 139.5,89.5 C130.5,97.8333333 124,104.333333 120,109 L115,115 L50,115 L50,340 L375,340 L375,340 Z M334,166 C278.666667,166 238.333333,172.833333 213,186.5 C187.666667,200.166667 161,230.333333 133,277 C133,274.333333 133.166667,270.666667 133.5,266 C133.833333,261.333333 135.333333,252 138,238 C140.666667,224 144.333333,210.833333 149,198.5 C153.666667,186.166667 161,172.333333 171,157 C181,141.666667 192.666667,128.5 206,117.5 C219.333333,106.5 237.166667,97.1666667 259.5,89.5 C281.833333,81.8333333 306.666667,78 334,78 L334,0 L500,125 L334,255 L334,166 L334,166 Z" id="path3108" sketch:type="MSShapeGroup"></path>
        </g>
    </g>
</svg>